<?xml version="1.0" standalone="no"?>
<!DOCTYPE svg PUBLIC "-//W3C//DTD SVG 20010904//EN"
 "http://www.w3.org/TR/2001/REC-SVG-20010904/DTD/svg10.dtd">
<svg version="1.0" xmlns="http://www.w3.org/2000/svg"
 width="1024.000000pt" height="1024.000000pt" viewBox="0 0 1024.000000 1024.000000"
 preserveAspectRatio="xMidYMid meet">
<metadata>
Created by potrace 1.14, written by Peter Selinger 2001-2017
</metadata>
<g transform="translate(0.000000,1024.000000) scale(0.100000,-0.100000)"
fill="#000000" stroke="none">
<path d="M4204 8732 c-51 -90 -304 -530 -379 -657 -45 -77 -99 -169 -119 -205
-20 -36 -41 -72 -46 -80 -36 -58 -100 -173 -100 -181 0 -5 -4 -9 -10 -9 -5 0
-10 -4 -10 -9 0 -4 -30 -60 -66 -122 -37 -63 -117 -202 -179 -309 -62 -107
-152 -262 -200 -345 -48 -82 -101 -175 -118 -205 -16 -30 -35 -62 -41 -70 -6
-8 -19 -28 -28 -45 -26 -49 -638 -1105 -680 -1174 -21 -34 -38 -65 -38 -66 0
-2 -30 -55 -66 -117 -37 -62 -77 -131 -89 -153 -13 -22 -78 -134 -145 -250
-68 -115 -134 -230 -148 -255 -13 -25 -46 -81 -72 -125 -26 -44 -64 -109 -84
-145 -20 -36 -41 -72 -46 -80 -21 -32 -130 -222 -130 -225 0 -2 -22 -40 -50
-85 -27 -45 -50 -83 -50 -85 0 -2 -46 -81 -102 -177 -55 -95 -112 -193 -126
-218 -14 -25 -43 -73 -64 -108 -21 -34 -38 -64 -38 -66 0 -2 -61 -108 -136
-237 -75 -129 -147 -253 -160 -276 -13 -23 -53 -92 -89 -153 -36 -61 -65 -113
-65 -116 0 -3 -8 -17 -19 -32 -32 -46 -311 -533 -311 -543 0 -5 -4 -9 -10 -9
-5 0 -10 -5 -10 -10 0 -6 -33 -66 -74 -134 -41 -68 -81 -137 -90 -153 l-15
-30 5114 0 c2813 0 5115 2 5115 5 0 4 -17 24 -39 47 -21 22 -88 112 -149 200
-61 88 -115 165 -120 170 -4 6 -25 35 -45 65 -21 30 -76 109 -122 175 -47 66
-93 131 -103 145 -9 14 -75 108 -146 210 -71 102 -150 215 -175 251 -25 36
-95 136 -156 222 -189 270 -365 521 -378 540 -6 11 -30 44 -53 75 -22 32 -73
104 -113 162 -40 58 -87 125 -105 150 -18 25 -57 81 -87 125 -31 44 -128 184
-217 310 -89 127 -167 238 -174 249 -7 10 -25 35 -39 55 -26 37 -59 84 -140
201 -36 52 -262 374 -309 440 -13 18 -286 409 -300 430 -27 39 -258 369 -340
485 -50 72 -129 184 -175 250 -46 66 -114 163 -150 215 -250 355 -311 443
-352 503 -25 37 -49 67 -53 67 -5 0 -32 -35 -61 -77 -29 -43 -57 -82 -61 -88
-5 -5 -45 -63 -91 -127 -45 -65 -116 -165 -157 -224 -41 -58 -97 -139 -125
-178 -27 -40 -59 -85 -71 -101 l-21 -28 -52 89 c-29 49 -56 96 -61 104 -20 32
-292 504 -317 548 -15 26 -43 74 -63 107 -20 33 -39 65 -41 70 -2 6 -62 111
-134 234 -71 122 -139 239 -151 259 -12 20 -54 93 -94 162 -39 69 -84 145 -98
170 -14 25 -88 153 -165 285 -77 132 -149 256 -160 275 -40 72 -40 72 -63 32z"/>
</g>
</svg>
