<svg width="40" height="40" viewBox="0 0 40 40" fill="none" xmlns="http://www.w3.org/2000/svg">
<path d="M36.25 5H3.75C1.67891 5 0 6.67891 0 8.75V31.25C0 33.3211 1.67891 35 3.75 35H36.25C38.3211 35 40 33.3211 40 31.25V8.75C40 6.67891 38.3211 5 36.25 5ZM36.25 8.75V11.9379C34.4983 13.3644 31.7056 15.5825 25.7354 20.2574C24.4197 21.2923 21.8134 23.7787 20 23.7497C18.1869 23.779 15.5798 21.292 14.2646 20.2574C8.29531 15.5832 5.50195 13.3646 3.75 11.9379V8.75H36.25ZM3.75 31.25V16.7498C5.54016 18.1757 8.07883 20.1766 11.9483 23.2066C13.6559 24.5507 16.6462 27.518 20 27.4999C23.3373 27.518 26.2898 24.5938 28.051 23.2072C31.9204 20.1773 34.4598 18.1759 36.25 16.7499V31.25H3.75Z" fill="black" fill-opacity="0.4"/>
</svg>
