<svg width="187" height="187" viewBox="0 0 187 187" fill="none" xmlns="http://www.w3.org/2000/svg">
<path d="M64.0593 106.797V115H31.8766L44.4972 101.243C47.5683 97.7938 49.861 94.9331 51.3755 92.6614C53.0583 89.969 53.8997 87.5921 53.8997 85.5307C53.8997 83.7638 53.3528 82.3755 52.259 81.3659C51.3755 80.5665 50.0924 80.1669 48.4097 80.1669C46.769 80.1669 45.4859 80.6717 44.5603 81.6814C43.3824 82.9855 42.7934 84.7103 42.7934 86.8559H33.0755C33.4541 82.4807 34.9055 78.9679 37.4297 76.3176C40.1641 73.4148 44.0345 71.9634 49.0407 71.9634C53.5421 71.9634 57.181 73.2886 59.9576 75.939C62.5659 78.5472 63.87 81.9128 63.87 86.0355C63.87 89.2748 62.8183 92.3669 60.7148 95.3117C59.4528 97.0786 57.2021 99.4976 53.9628 102.569L49.5455 106.797H64.0593ZM69.9989 113.738L89.0562 81.1134H70.5038V72.91H103.949L79.0227 115.947L69.9989 113.738ZM116.355 114.874L141.029 72.2159L145.446 73.1624L120.709 115.883L116.355 114.874ZM121.214 78.9048C120.331 77.9372 119.132 77.4534 117.617 77.4534C116.103 77.4534 114.904 77.9372 114.02 78.9048C113.095 79.8303 112.632 81.0503 112.632 82.5648C112.632 84.0793 113.095 85.2993 114.02 86.2248C114.904 87.1924 116.103 87.6762 117.617 87.6762C119.132 87.6762 120.331 87.1924 121.214 86.2248C122.14 85.2993 122.603 84.0793 122.603 82.5648C122.603 81.0503 122.14 79.8303 121.214 78.9048ZM125.947 75.4972C127.756 77.3062 128.66 79.6621 128.66 82.5648C128.66 85.4676 127.756 87.8234 125.947 89.6324C123.928 91.7359 121.151 92.7876 117.617 92.7876C114.084 92.7876 111.307 91.7359 109.288 89.6324C107.479 87.8234 106.574 85.4676 106.574 82.5648C106.574 79.6621 107.479 77.3062 109.288 75.4972C111.307 73.3938 114.084 72.3421 117.617 72.3421C121.151 72.3421 123.928 73.3938 125.947 75.4972ZM147.718 101.685C146.834 100.718 145.635 100.234 144.121 100.234C142.606 100.234 141.407 100.718 140.524 101.685C139.598 102.611 139.136 103.831 139.136 105.345C139.136 106.86 139.598 108.08 140.524 109.005C141.407 109.973 142.606 110.457 144.121 110.457C145.635 110.457 146.834 109.973 147.718 109.005C148.643 108.08 149.106 106.86 149.106 105.345C149.106 103.831 148.643 102.611 147.718 101.685ZM152.45 98.2776C154.259 100.087 155.164 102.442 155.164 105.345C155.164 108.248 154.259 110.604 152.45 112.413C150.431 114.516 147.655 115.568 144.121 115.568C140.587 115.568 137.81 114.516 135.791 112.413C133.982 110.604 133.078 108.248 133.078 105.345C133.078 102.442 133.982 100.087 135.791 98.2776C137.81 96.1741 140.587 95.1224 144.121 95.1224C147.655 95.1224 150.431 96.1741 152.45 98.2776Z" fill="#1B1D23" fill-opacity="0.7"/>
<circle cx="93.5" cy="93.5" r="88" stroke="#F2F2F0" stroke-width="11"/>
<path fill-rule="evenodd" clip-rule="evenodd" d="M90.3837 11.0578C91.4178 11.0194 92.4568 11 93.5003 11C139.064 11 176 47.9365 176 93.5C176 99.3476 175.392 105.053 174.235 110.557L185.115 112.272C186.351 106.207 187 99.9294 187 93.5C187 41.8614 145.139 0 93.5003 0C92.4574 0 91.4184 0.0170766 90.3837 0.0509653V11.0578Z" fill="#1B1D23" fill-opacity="0.7"/>
</svg>
