<svg width="187" height="187" viewBox="0 0 187 187" fill="none" xmlns="http://www.w3.org/2000/svg">
<path d="M48.5359 71.9634L58.9479 73.0362L47.8417 86.8559C49.1459 86.3931 50.6183 86.1617 52.259 86.1617C56.5921 86.1617 60.0628 87.5079 62.671 90.2003C65.111 92.7245 66.331 95.9638 66.331 99.9183C66.331 104.546 65.0059 108.311 62.3555 111.214C59.4528 114.369 55.1407 115.947 49.4193 115.947C43.3614 115.947 38.8179 114.306 35.789 111.024C33.349 108.416 32.129 105.009 32.129 100.802C32.129 97.7728 32.6969 95.0593 33.8328 92.6614C35.0107 90.2214 36.6934 87.55 38.881 84.6472L48.5359 71.9634ZM43.9924 106.039C45.3807 107.343 47.0845 107.996 49.1038 107.996C51.1231 107.996 52.8059 107.364 54.1521 106.102C55.6245 104.714 56.3607 102.863 56.3607 100.549C56.3607 98.4038 55.6245 96.679 54.1521 95.3748C52.8059 94.1969 51.1231 93.6079 49.1038 93.6079C46.9583 93.6079 45.2545 94.2179 43.9924 95.4379C42.5621 96.7421 41.8469 98.53 41.8469 100.802C41.8469 102.989 42.5621 104.735 43.9924 106.039ZM80.3784 85.5307H71.0391C71.4598 81.6183 72.8481 78.4421 75.204 76.0021C77.7702 73.3517 81.325 72.0265 85.8684 72.0265C90.7484 72.0265 94.4295 73.2676 96.9116 75.7497C99.0571 77.811 100.13 80.6717 100.13 84.3317C100.13 86.6034 99.5619 88.5176 98.426 90.0741C97.6267 91.21 96.575 92.0934 95.2709 92.7245C97.3743 93.4817 98.9729 94.6176 100.067 96.1321C101.371 97.899 102.023 100.108 102.023 102.758C102.023 106.586 100.614 109.783 97.795 112.35C95.1026 114.79 91.4005 116.01 86.6888 116.01C81.3881 116.01 77.2864 114.558 74.3836 111.656C71.6912 108.921 70.1347 105.45 69.714 101.243H79.4319C79.6002 103.221 80.2733 104.798 81.4512 105.976C82.5871 107.112 84.1436 107.68 86.1209 107.68C87.8878 107.68 89.2971 107.196 90.3488 106.229C91.4847 105.177 92.0526 103.747 92.0526 101.938C92.0526 100.255 91.4426 98.9086 90.2226 97.899C89.0867 97.0155 87.3619 96.5738 85.0481 96.5738H84.2909V89.8848H84.8588C86.7098 89.8848 88.1191 89.4852 89.0867 88.6859C90.1384 87.8024 90.6643 86.5403 90.6643 84.8997C90.6643 83.4693 90.2016 82.3334 89.276 81.4921C88.3505 80.6507 87.1516 80.23 85.6791 80.23C84.0805 80.23 82.8184 80.6928 81.8929 81.6183C80.9674 82.6279 80.4626 83.9321 80.3784 85.5307ZM117.711 114.874L142.384 72.2159L146.802 73.1624L122.065 115.883L117.711 114.874ZM122.57 78.9048C121.687 77.9372 120.488 77.4534 118.973 77.4534C117.459 77.4534 116.26 77.9372 115.376 78.9048C114.451 79.8303 113.988 81.0503 113.988 82.5648C113.988 84.0793 114.451 85.2993 115.376 86.2248C116.26 87.1924 117.459 87.6762 118.973 87.6762C120.488 87.6762 121.687 87.1924 122.57 86.2248C123.496 85.2993 123.958 84.0793 123.958 82.5648C123.958 81.0503 123.496 79.8303 122.57 78.9048ZM127.303 75.4972C129.112 77.3062 130.016 79.6621 130.016 82.5648C130.016 85.4676 129.112 87.8234 127.303 89.6324C125.283 91.7359 122.507 92.7876 118.973 92.7876C115.439 92.7876 112.663 91.7359 110.643 89.6324C108.834 87.8234 107.93 85.4676 107.93 82.5648C107.93 79.6621 108.834 77.3062 110.643 75.4972C112.663 73.3938 115.439 72.3421 118.973 72.3421C122.507 72.3421 125.283 73.3938 127.303 75.4972ZM149.073 101.685C148.19 100.718 146.991 100.234 145.477 100.234C143.962 100.234 142.763 100.718 141.88 101.685C140.954 102.611 140.491 103.831 140.491 105.345C140.491 106.86 140.954 108.08 141.88 109.005C142.763 109.973 143.962 110.457 145.477 110.457C146.991 110.457 148.19 109.973 149.073 109.005C149.999 108.08 150.462 106.86 150.462 105.345C150.462 103.831 149.999 102.611 149.073 101.685ZM153.806 98.2776C155.615 100.087 156.52 102.442 156.52 105.345C156.52 108.248 155.615 110.604 153.806 112.413C151.787 114.516 149.01 115.568 145.477 115.568C141.943 115.568 139.166 114.516 137.147 112.413C135.338 110.604 134.433 108.248 134.433 105.345C134.433 102.442 135.338 100.087 137.147 98.2776C139.166 96.1741 141.943 95.1224 145.477 95.1224C149.01 95.1224 151.787 96.1741 153.806 98.2776Z" fill="#1B1D23" fill-opacity="0.7"/>
<circle cx="93.5" cy="93.5" r="88" stroke="#F2F2F0" stroke-width="11"/>
<path fill-rule="evenodd" clip-rule="evenodd" d="M90.3837 11.0578C91.4178 11.0194 92.4568 11 93.5004 11C139.064 11 176 47.9365 176 93.5C176 139.063 139.064 176 93.5004 176C73.2436 176 54.6919 168.699 40.3332 156.586L33.2341 164.989C49.5088 178.722 70.5379 187 93.5004 187C145.139 187 187 145.139 187 93.5C187 41.8614 145.139 0 93.5004 0C92.4574 0 91.4184 0.0170766 90.3837 0.0509653V11.0578Z" fill="#1B1D23" fill-opacity="0.7"/>
</svg>
