<svg width="187" height="187" viewBox="0 0 187 187" fill="none" xmlns="http://www.w3.org/2000/svg">
<path d="M61.7129 72.7771V98.8799H66.6967V106.48H61.7129V114.33H52.4928V106.48H32.1837V100.998L50.4992 72.7771H61.7129ZM42.2759 98.8799H52.4928V82.7448L42.2759 98.8799ZM104.722 93.5846C104.722 101.226 102.728 107.02 98.7411 110.966C95.7924 113.831 92.0753 115.264 87.5898 115.264C83.1874 115.264 79.5119 113.831 76.5631 110.966C72.576 107.02 70.5825 101.226 70.5825 93.5846C70.5825 85.8181 72.576 80.0036 76.5631 76.1412C79.5119 73.2755 83.1874 71.8426 87.5898 71.8426C92.0753 71.8426 95.7924 73.2755 98.7411 76.1412C102.728 80.0036 104.722 85.8181 104.722 93.5846ZM91.5146 81.6234C90.4348 80.5851 89.1473 80.0659 87.6521 80.0659C86.157 80.0659 84.8695 80.5851 83.7897 81.6234C81.4639 83.9076 80.301 87.8739 80.301 93.5223C80.301 99.2122 81.4639 103.199 83.7897 105.483C84.8695 106.522 86.157 107.041 87.6521 107.041C89.1473 107.041 90.4348 106.522 91.5146 105.483C93.8404 103.199 95.0033 99.2122 95.0033 93.5223C95.0033 87.8739 93.8404 83.9076 91.5146 81.6234ZM117.842 114.205L142.201 72.0918L146.562 73.0263L122.141 115.202L117.842 114.205ZM122.639 78.6954C121.767 77.7402 120.583 77.2625 119.088 77.2625C117.593 77.2625 116.409 77.7402 115.537 78.6954C114.624 79.6091 114.167 80.8135 114.167 82.3087C114.167 83.8038 114.624 85.0082 115.537 85.9219C116.409 86.8772 117.593 87.3548 119.088 87.3548C120.583 87.3548 121.767 86.8772 122.639 85.9219C123.553 85.0082 124.01 83.8038 124.01 82.3087C124.01 80.8135 123.553 79.6091 122.639 78.6954ZM127.312 75.3313C129.097 77.1172 129.99 79.443 129.99 82.3087C129.99 85.1744 129.097 87.5002 127.312 89.286C125.318 91.3626 122.577 92.4009 119.088 92.4009C115.6 92.4009 112.858 91.3626 110.865 89.286C109.079 87.5002 108.186 85.1744 108.186 82.3087C108.186 79.443 109.079 77.1172 110.865 75.3313C112.858 73.2547 115.6 72.2164 119.088 72.2164C122.577 72.2164 125.318 73.2547 127.312 75.3313ZM148.804 101.185C147.932 100.23 146.748 99.7521 145.253 99.7521C143.758 99.7521 142.575 100.23 141.702 101.185C140.789 102.099 140.332 103.303 140.332 104.798C140.332 106.293 140.789 107.498 141.702 108.411C142.575 109.367 143.758 109.844 145.253 109.844C146.748 109.844 147.932 109.367 148.804 108.411C149.718 107.498 150.175 106.293 150.175 104.798C150.175 103.303 149.718 102.099 148.804 101.185ZM153.477 97.8208C155.263 99.6067 156.155 101.932 156.155 104.798C156.155 107.664 155.263 109.99 153.477 111.776C151.483 113.852 148.742 114.89 145.253 114.89C141.765 114.89 139.024 113.852 137.03 111.776C135.244 109.99 134.351 107.664 134.351 104.798C134.351 101.932 135.244 99.6067 137.03 97.8208C139.024 95.7442 141.765 94.7059 145.253 94.7059C148.742 94.7059 151.483 95.7442 153.477 97.8208Z" fill="#1B1D23" fill-opacity="0.7"/>
<circle cx="93.5" cy="93.5" r="88" stroke="#F2F2F0" stroke-width="11"/>
<path fill-rule="evenodd" clip-rule="evenodd" d="M90.3837 11.0578C91.4178 11.0194 92.4568 11 93.5003 11C139.064 11 176 47.9365 176 93.5C176 120.956 162.589 145.279 141.959 160.275L148.943 168.796C172.027 151.771 187 124.384 187 93.5C187 41.8614 145.139 0 93.5003 0C92.4574 0 91.4184 0.0170766 90.3837 0.0509653V11.0578Z" fill="#1B1D23" fill-opacity="0.7"/>
</svg>
