<?xml version="1.0" encoding="utf-8"?>
<!-- Generator: Adobe Illustrator 26.0.2, SVG Export Plug-In . SVG Version: 6.00 Build 0)  -->
<svg version="1.1" id="Layer_1" xmlns="http://www.w3.org/2000/svg" xmlns:xlink="http://www.w3.org/1999/xlink" x="0px" y="0px"
	 viewBox="0 0 34 24" style="enable-background:new 0 0 34 24;" xml:space="preserve">
<style type="text/css">
	.st0{fill-rule:evenodd;clip-rule:evenodd;fill:#FF6400;}
</style>
<g>
	<path d="M32.4,23H1.6c0.1-0.1,0.1-0.2,0.2-0.3L13.7,2.1L14.3,1l0.6,1l3,5.2l0.6,1l1.8-2.5l12,17.1L32.4,23z"/>
	<path class="st0" d="M32.4,23H1.6v-0.1c0.1-0.1,0.1-0.2,0.2-0.3l1.9-3.3c0.8-0.5,1.9-0.8,4-0.8c0.9,0,1.6,0.2,2.3,0.3
		c0.7,0.2,1.4,0.3,2.5,0.3c2,0,5.1-2.7,4.1-5.6c-0.6-1.9-1-4,0.5-5.5c0.2-0.2,0.9-0.5,1.1-0.5l0.4,0.6l0,0l0,0
		c-0.5,0.6-0.8,1.4-0.8,2.2c0,1.3,0.6,2.4,1.1,3.3c0.4,0.7,0.8,1.4,0.9,2.1c0.1,0.9-0.4,1.2-1,1.5c-0.5,0.3-1,0.6-1,1.3
		c0,1.3,2.7,1.9,5.8,1.9l0,0c2.9,0,6.4,0,8.4,1.8l0.3,0.4L32.4,23z"/>
</g>
</svg>
