<svg width="12" height="13" viewBox="0 0 12 13" fill="none" xmlns="http://www.w3.org/2000/svg">
<path d="M2.67418 6.06445C2.67418 6.29496 2.75553 6.49157 2.93858 6.66784L8.22672 11.8407C8.37587 11.9899 8.55892 12.0645 8.77587 12.0645C9.21655 12.0645 9.56909 11.7255 9.56909 11.278C9.56909 11.0611 9.47418 10.8645 9.3318 10.7153L4.55892 6.06445L9.3318 1.41361C9.48096 1.25767 9.56909 1.06106 9.56909 0.844114C9.56909 0.403436 9.21655 0.0644531 8.77587 0.0644531C8.55892 0.0644531 8.37587 0.139029 8.22672 0.288182L2.93858 5.46106C2.76231 5.63733 2.67418 5.83394 2.67418 6.06445Z" fill="black"/>
</svg>
