<svg width="12" height="13" viewBox="0 0 12 13" fill="none" xmlns="http://www.w3.org/2000/svg">
<path d="M9.56899 6.06445C9.56899 6.29496 9.48763 6.49157 9.30458 6.66784L4.01645 11.8407C3.86729 11.9899 3.68424 12.0645 3.46729 12.0645C3.02661 12.0645 2.67407 11.7255 2.67407 11.278C2.67407 11.0611 2.76899 10.8645 2.91136 10.7153L7.68424 6.06445L2.91136 1.41361C2.76221 1.25767 2.67407 1.06106 2.67407 0.844114C2.67407 0.403436 3.02661 0.0644531 3.46729 0.0644531C3.68424 0.0644531 3.86729 0.139029 4.01645 0.288182L9.30458 5.46106C9.48085 5.63733 9.56899 5.83394 9.56899 6.06445Z" fill="black"/>
</svg>
